<?xml version="1.0" encoding="UTF-8" standalone="no"?>
<!-- Created with Inkscape (http://www.inkscape.org/) -->

<svg
   xmlns:osb="http://www.openswatchbook.org/uri/2009/osb"
   xmlns:dc="http://purl.org/dc/elements/1.1/"
   xmlns:cc="http://creativecommons.org/ns#"
   xmlns:rdf="http://www.w3.org/1999/02/22-rdf-syntax-ns#"
   xmlns:svg="http://www.w3.org/2000/svg"
   xmlns="http://www.w3.org/2000/svg"
   xmlns:sodipodi="http://sodipodi.sourceforge.net/DTD/sodipodi-0.dtd"
   xmlns:inkscape="http://www.inkscape.org/namespaces/inkscape"
   width="730"
   height="110"
   viewBox="0 0 193.14584 29.104166"
   version="1.1"
   id="svg8"
   sodipodi:docname="LCR-Reader-Logo-full.svg"
   inkscape:version="0.92.3 (2405546, 2018-03-11)">
  <sodipodi:namedview
     id="base"
     pagecolor="#ffffff"
     bordercolor="#666666"
     borderopacity="1.0"
     inkscape:pageopacity="0.0"
     inkscape:pageshadow="2"
     inkscape:zoom="2.8"
     inkscape:cx="362.67722"
     inkscape:cy="-1.6346686"
     inkscape:document-units="mm"
     inkscape:current-layer="layer1"
     showgrid="false"
     inkscape:window-width="3840"
     inkscape:window-height="2097"
     inkscape:window-x="1912"
     inkscape:window-y="-8"
     inkscape:window-maximized="1"
     fit-margin-top="4"
     fit-margin-left="8"
     fit-margin-right="8"
     fit-margin-bottom="4"
     units="px" />
  <defs
     id="defs2">
    <style
       type="text/css"
       id="style3"><![CDATA[
		@font-face {
			font-family: Signika;
			src: url('https://lcr-reader.cn/fonts/Signika-Regular.otf');
		}
	]]></style>
    <linearGradient
       id="linearGradient2333"
       osb:paint="solid">
      <stop
         style="stop-color:#000000;stop-opacity:1;"
         offset="0"
         id="stop2331" />
    </linearGradient>
  </defs>
  <metadata
     id="metadata5">
    <rdf:RDF>
      <cc:Work
         rdf:about="">
        <dc:format>image/svg+xml</dc:format>
        <dc:type
           rdf:resource="http://purl.org/dc/dcmitype/StillImage" />
        <dc:title></dc:title>
      </cc:Work>
    </rdf:RDF>
  </metadata>
  <g
     transform="translate(-7.8328771,-47.097474)"
     id="layer1"
     inkscape:groupmode="layer"
     inkscape:label="Layer 1">
    <path
       sodipodi:nodetypes="ccccccccccccccccccccccccccccccccccccccccccccccccccccccc"
       inkscape:connector-curvature="0"
       id="path826"
       d="m 188.94886,61.344554 6.01422,-1.923287 c 0.0763,0.991217 0.35795,2.181478 0.9392,3.273882 l -1.64553,0.177524 5.04732,12.390184 c -2.52274,-1.992941 -5.25494,-3.946473 -9.08289,-5.069271 l -0.80557,2.083618 -1.18356,-3.250954 -0.72827,-0.03341 -0.96214,2.750807 -1.05565,-2.817624 -0.72827,0.0057 -1.15112,2.756539 -1.40595,-2.98467 -0.66146,1.183551 c -4.59198,1.233365 -6.42075,3.062998 -8.33169,4.775306 l 1.85647,-4.807732 c -2.24174,-0.18924 -1.35899,-4.91508 0.99457,-6.40365 -0.14847,-1.954788 0.55051,-3.370287 2.78757,-4.488467 -0.004,-1.848748 1.55456,-3.133453 3.44903,-3.63802 0.98681,-2.658333 4.90814,-4.152983 7.37054,-3.234744 l 6.41413,-3.407518 c -1.25582,1.926456 -2.58085,4.420859 -2.66778,6.714809 l 1.43936,-0.533556 c -0.30576,1.123301 -0.29328,2.098577 -0.15558,2.856769 l -6.09724,2.073136 c -0.1885,-0.642243 -0.3313,-1.822463 -0.17179,-2.773736 l 1.50617,-0.561232 0.0553,-2.479773 -1.03944,0.856178 -2.05118,-1.2561 c -0.75853,-0.06843 -1.42496,0.442705 -1.384,1.178802 l 2.13421,0.939208 c -0.93365,0.556465 -1.98438,1.560088 -2.70691,2.462577 l -2.48452,-1.267562 c -0.71873,0.131264 -1.2605,0.632006 -1.16162,1.334379 l 2.50647,0.844715 c -0.89157,0.822442 -1.68794,1.644883 -2.13422,2.467325 l -2.68497,-0.827517 c 0,0 -0.97578,0.844979 -0.91726,1.629325 l 2.77946,0.527824 c -0.82156,0.9479 -1.33161,2.227544 -1.57299,3.040022 -0.66439,-0.308272 -1.74906,-0.436425 -3.03527,-0.478202 -0.35526,0.602216 -0.48594,1.134466 -0.47821,1.623595 1.64172,0.201268 3.78457,0.707251 5.02539,-0.389439 l 1.85074,-3.290096 1.07857,2.534142 1.76198,-2.756539 1.10625,2.9904 1.57873,-2.807145 1.12819,3.234742 c 1.12298,0.187014 2.27402,0.514345 3.48581,1.145393 l -1.57873,-3.952536 -1.42887,0.09449 z"
       style="fill:#003296;fill-opacity:1;stroke:#ffffff;stroke-width:0.5;stroke-linecap:butt;stroke-linejoin:miter;stroke-miterlimit:4;stroke-dasharray:none;stroke-opacity:1"
       inkscape:export-xdpi="100"
       inkscape:export-ydpi="100" />
    <path
       style="fill:#ff0000;stroke:#ffffff;stroke-width:0.035;stroke-miterlimit:4;stroke-dasharray:none;stroke-opacity:1"
       inkscape:connector-curvature="0"
       d="m 177.53697,49.808362 -0.65143,1.215175 c -0.0739,0.132069 -0.20637,0.11982 -0.33881,0.04606 l -0.47162,-0.244249 0.35151,1.866483 c 0.0739,0.340996 -0.16325,0.340996 -0.28029,0.193556 l -0.82308,-0.921543 -0.13362,0.467981 c -0.0154,0.06145 -0.0832,0.126005 -0.18481,0.110633 l -1.0408,-0.218856 0.27338,0.993998 c 0.0585,0.221176 0.10417,0.31275 -0.0591,0.371086 l -0.37098,0.174377 1.79165,1.455498 c 0.0709,0.05504 0.10674,0.154072 0.0814,0.243743 l -0.15681,0.514661 c 0.61689,-0.07112 1.16963,-0.178116 1.78683,-0.244012 0.0545,-0.0058 0.14572,0.08411 0.14534,0.147265 l -0.0817,1.885511 h 0.29994 l -0.0472,-1.881468 c -3.9e-4,-0.06315 0.0824,-0.157125 0.13687,-0.151308 0.6172,0.06589 1.16995,0.172892 1.78684,0.244012 l -0.15682,-0.514661 c -0.0252,-0.08967 0.0106,-0.188708 0.0815,-0.243743 l 1.79165,-1.455498 -0.37097,-0.174377 c -0.16325,-0.05833 -0.11759,-0.14991 -0.059,-0.371086 l 0.27337,-0.993998 -1.04079,0.218856 c -0.10164,0.01538 -0.1694,-0.04918 -0.18481,-0.110633 l -0.13362,-0.467981 -0.82308,0.921543 c -0.11704,0.14744 -0.35422,0.14744 -0.2803,-0.193556 l 0.35151,-1.866483 -0.47162,0.244249 c -0.13245,0.07376 -0.26489,0.08601 -0.33881,-0.04606"
       id="path853"
       inkscape:export-xdpi="100"
       inkscape:export-ydpi="100" />
    <text
       id="text817"
       y="71.424515"
       x="9.0764179"
       style="font-style:normal;font-variant:normal;font-weight:bold;font-stretch:normal;font-size:2.46944427px;line-height:1.25;font-family:Signika;-inkscape-font-specification:'Signika Bold';font-variant-ligatures:normal;font-variant-caps:normal;font-variant-numeric:normal;font-feature-settings:normal;text-align:start;letter-spacing:0px;word-spacing:0px;writing-mode:lr-tb;text-anchor:start;fill:#03339a;fill-opacity:1;stroke:#fdfdfd;stroke-width:0.5;stroke-miterlimit:4;stroke-dasharray:none;stroke-opacity:1;"
       xml:space="preserve"
       inkscape:export-xdpi="100"
       inkscape:export-ydpi="100"><tspan
         style="font-size:27.51666641px;fill:#03339a;fill-opacity:1;stroke:#fdfdfd;stroke-width:0.5;stroke-miterlimit:4;stroke-dasharray:none;stroke-opacity:1;"
         y="71.424515"
         x="9.0764179"
         id="tspan815"
         sodipodi:role="line">LCR-Reader <tspan
   id="tspan819"
   style="font-size:19.75555611px;fill:#03339a;fill-opacity:1;stroke:#fdfdfd;stroke-width:0.5;stroke-miterlimit:4;stroke-dasharray:none;stroke-opacity:1;" /></tspan></text>
    <text
       id="text823"
       y="65.811852"
       x="153.66922"
       style="font-style:normal;font-variant:normal;font-weight:bold;font-stretch:normal;font-size:2.46944427px;line-height:1.25;font-family:Signika;-inkscape-font-specification:'Signika Bold';font-variant-ligatures:normal;font-variant-caps:normal;font-variant-numeric:normal;font-feature-settings:normal;text-align:start;letter-spacing:0px;word-spacing:0px;writing-mode:lr-tb;text-anchor:start;fill:#03339a;fill-opacity:1;stroke:#ffffff;stroke-width:0.35;stroke-miterlimit:4;stroke-dasharray:none;stroke-opacity:1"
       xml:space="preserve"
       inkscape:export-xdpi="100"
       inkscape:export-ydpi="100"><tspan
         style="font-size:19.75555611px;fill:#03339a;fill-opacity:1;stroke:#ffffff;stroke-width:0.35;stroke-miterlimit:4;stroke-dasharray:none;stroke-opacity:1"
         y="65.811852"
         x="153.66922"
         id="tspan821"
         sodipodi:role="line">®</tspan></text>
  </g>
</svg>
